<?xml version="1.0" encoding="utf-8"?>
<!-- Generator: Adobe Illustrator 18.1.1, SVG Export Plug-In . SVG Version: 6.00 Build 0)  -->
<svg version="1.1" id="Layer_1" xmlns="http://www.w3.org/2000/svg" xmlns:xlink="http://www.w3.org/1999/xlink" x="0px" y="0px"
	 viewBox="0 164.4 576 247.3" enable-background="new 0 164.4 576 247.3" xml:space="preserve">
<ellipse fill="#006838" cx="454.1" cy="195.8" rx="21.1" ry="19.5"/>
<g>
	<path fill="#6D6E71" d="M229.9,377c-0.1-3.4-0.4-7.5-0.4-10.6h-0.1c-0.8,2.9-1.9,6-3.1,9.4l-4.4,12h-2.3l-4-11.7
		c-1.2-3.4-2.2-6.7-2.9-9.5l0,0c-0.1,3-0.3,7.2-0.4,10.9l-0.7,10.5h-3l1.8-24.5h4.1l4.2,11.9c1,3,1.9,5.7,2.5,8.3h0.1
		c0.7-2.5,1.5-5.2,2.6-8.3l4.4-11.9h4.1l1.5,24.5h-3.1L229.9,377z"/>
	<path fill="#6D6E71" d="M242.2,380.2l-2.6,7.8h-3.3l8.3-24.5h3.8l8.5,24.5h-3.4l-2.6-7.8H242.2z M250.2,377.6l-2.5-7.1
		c-0.5-1.6-1-3-1.2-4.5h-0.1c-0.4,1.5-0.8,3-1.2,4.5l-2.5,7.1H250.2z"/>
	<path fill="#6D6E71" d="M260.5,387.8v-24.5h3.4l7.9,12.4c1.8,2.9,3.3,5.5,4.4,8h0.1c-0.3-3.3-0.4-6.3-0.4-10.1v-10.2h3V388h-3.3
		l-7.8-12.5c-1.8-2.7-3.4-5.6-4.6-8.2H263c0.1,3.1,0.3,6,0.3,10.1v10.5H260.5z"/>
	<path fill="#6D6E71" d="M287.7,363.3v14.6c0,5.5,2.5,7.9,5.7,7.9c3.7,0,6-2.5,6-7.9v-14.6h3.3v14.3c0,7.5-4,10.6-9.3,10.6
		c-5,0-8.9-2.9-8.9-10.5v-14.5H287.7z"/>
	<path fill="#6D6E71" d="M308,363.3h13.2v2.7h-10.1v8.2h9.3v2.6h-9.3V388H308V363.3z"/>
	<path fill="#6D6E71" d="M327,380.2l-2.6,7.8h-3.3l8.3-24.5h3.8l8.5,24.5h-3.4l-2.6-7.8H327z M335,377.6l-2.5-7.1
		c-0.5-1.6-1-3-1.2-4.5l0,0c-0.4,1.5-0.8,3-1.2,4.5l-2.5,7.1H335z"/>
	<path fill="#6D6E71" d="M362,387c-1.2,0.5-3.5,1.2-6.5,1.2c-7,0-12.1-4.4-12.1-12.4c0-7.6,5.2-13,12.8-13c3,0,5,0.7,5.9,1.1
		l-0.8,2.6c-1.2-0.5-2.9-1.1-4.9-1.1c-5.7,0-9.5,3.7-9.5,10.1c0,6,3.4,10,9.4,10c1.9,0,4-0.4,5.2-1L362,387z"/>
	<path fill="#6D6E71" d="M371.7,366h-7.5v-2.7h18.3v2.7H375v22h-3.3V366z"/>
	<path fill="#6D6E71" d="M388.4,363.3v14.6c0,5.5,2.5,7.9,5.7,7.9c3.7,0,6-2.5,6-7.9v-14.6h3.3v14.3c0,7.5-4,10.6-9.3,10.6
		c-5,0-8.9-2.9-8.9-10.5v-14.5H388.4z"/>
	<path fill="#6D6E71" d="M408.7,363.5c1.6-0.3,4-0.5,6.1-0.5c3.4,0,5.6,0.7,7.1,2c1.2,1.1,1.9,2.7,1.9,4.6c0,3.3-2,5.5-4.6,6.3v0.1
		c1.9,0.7,3,2.5,3.5,4.9c0.8,3.4,1.4,5.9,1.9,6.8h-3.3c-0.4-0.7-1-2.9-1.6-5.9c-0.7-3.4-2-4.6-4.9-4.8h-3v10.6h-3.1V363.5z
		 M412,374.9h3.3c3.4,0,5.6-1.9,5.6-4.6c0-3.1-2.3-4.5-5.6-4.6c-1.5,0-2.6,0.1-3.1,0.3v9H412z"/>
	<path fill="#6D6E71" d="M431.6,363.3v24.5h-3.1v-24.5H431.6z"/>
	<path fill="#6D6E71" d="M437,387.8v-24.5h3.4l7.9,12.4c1.8,2.9,3.3,5.5,4.4,8h0.1c-0.3-3.3-0.4-6.3-0.4-10.1v-10.2h3V388h-3.3
		l-7.8-12.5c-1.8-2.7-3.4-5.6-4.6-8.2h-0.1c0.1,3.1,0.3,6,0.3,10.1v10.5H437z"/>
	<path fill="#6D6E71" d="M479.9,386.7c-1.4,0.5-4.2,1.4-7.5,1.4c-3.7,0-6.8-1-9.1-3.3c-2.2-2-3.4-5.3-3.4-9.1
		c0-7.4,5-12.7,13.4-12.7c2.9,0,5,0.7,6.1,1.1l-0.8,2.6c-1.4-0.5-3-1.1-5.5-1.1c-6,0-10,3.7-10,10s3.8,10,9.5,10
		c2,0,3.5-0.3,4.2-0.7v-7.4h-5v-2.6h8L479.9,386.7L479.9,386.7z"/>
	<path fill="#6D6E71" d="M499.6,387.4c-0.5,0.3-1.8,0.5-3.3,0.5c-3.4,0-6.1-2.2-6.1-6.3c0-3.8,2.6-6.4,6.4-6.4
		c1.5,0,2.5,0.3,2.9,0.5l-0.4,1.4c-0.5-0.3-1.5-0.5-2.5-0.5c-2.9,0-4.8,1.9-4.8,5c0,3,1.8,4.9,4.8,4.9c1,0,1.9-0.1,2.6-0.5
		L499.6,387.4z"/>
	<path fill="#6D6E71" d="M511.8,381.5c0,4.2-2.6,6.5-5.7,6.5c-3.3,0-5.6-2.5-5.6-6.3c0-4,2.5-6.4,5.7-6.4
		C509.6,375.4,511.8,378,511.8,381.5z M502.2,381.8c0,2.6,1.4,5,4,5c2.5,0,4-2.3,4-5c0-2.5-1.2-5-4-5
		C503.5,376.6,502.2,379.1,502.2,381.8z"/>
	<path fill="#6D6E71" d="M519.3,375.5v12.3h-1.6v-12.3H519.3z"/>
	<path fill="#6D6E71" d="M522,387.8v-12.3h1.8l4,6.3c1,1.5,1.6,2.7,2.2,4l0,0c-0.1-1.6-0.1-3.1-0.1-5v-5.2h1.5v12.3h-1.6l-4-6.3
		c-0.8-1.4-1.6-2.7-2.3-4.1l0,0c0.1,1.5,0.1,3,0.1,5v5.3H522L522,387.8z"/>
	<path fill="#6D6E71" d="M542.6,387.4c-0.5,0.3-1.8,0.5-3.3,0.5c-3.4,0-6.1-2.2-6.1-6.3c0-3.8,2.6-6.4,6.4-6.4
		c1.5,0,2.5,0.3,2.9,0.5l-0.4,1.4c-0.5-0.3-1.5-0.5-2.5-0.5c-2.9,0-4.8,1.9-4.8,5c0,3,1.8,4.9,4.8,4.9c1,0,1.9-0.1,2.6-0.5
		L542.6,387.4z"/>
	<path fill="#6D6E71" d="M544.1,386.9c0-0.7,0.4-1.1,1.1-1.1s1.1,0.4,1.1,1.1s-0.4,1.1-1.1,1.1C544.6,388.1,544.1,387.5,544.1,386.9
		z"/>
</g>
<g>
	<path fill="#808285" d="M576,201c0,7.1-5.6,12.7-12.8,12.7s-13-5.6-13-12.7c0-7,5.7-12.5,13-12.5S576,194,576,201z M553.4,201
		c0,5.6,4.1,10,9.8,10c5.5,0,9.5-4.4,9.5-10s-4.1-10.1-9.5-10.1C557.6,190.9,553.4,195.4,553.4,201z M561.1,207.5h-2.9V195
		c1.1-0.3,2.7-0.4,4.8-0.4c2.3,0,3.4,0.4,4.4,1c0.7,0.5,1.2,1.5,1.2,2.7c0,1.4-1.1,2.5-2.6,2.9v0.1c1.2,0.4,1.9,1.4,2.3,3
		c0.4,1.9,0.5,2.7,1,3.1h-3.1c-0.4-0.4-0.5-1.6-1-3c-0.3-1.4-1-2-2.6-2h-1.4v5.2H561.1z M561.3,200.5h1.4c1.6,0,2.9-0.5,2.9-1.8
		c0-1.1-0.8-1.9-2.7-1.9c-0.8,0-1.4,0.1-1.6,0.1v3.5H561.3z"/>
</g>
<path fill="#006838" d="M535.4,242.2c4-7.6,9.7-11.7,7-15.4c-2.7-3.7-13.6-19.6-41.7-17.6c0,0-5.5,11.7-7.8,16.4
	S473.2,257,464,270.3c-9.8,14-21.3,29.3-27,34.4c-5.7,5-11.7,6.3-16.6,2c-7.6-6.4,10.2-33,10.2-33l20.7-33c0,0,3.3-6.1,0.3-8
	c-4.6-2.9-28.4-13-28.4-13s-3-0.1-4.4,1.8c-1.4,1.9-27.3,41-37.8,59.6c-8.9,15.8-25.5,30.4-34.1,27c-14.5-5.7-5.5-19.8,0.1-25.4
	c5.7-5.6,23.5-17.5,40.2-52.9c9.8-20.7,15.5-48.5,9.3-55.6c-7.9-9.1-24.4-11.3-33.4-5.7c-9,5.6-26.2,37-33.5,56.6
	c-7.4,19.6-21.7,53.5-28.1,65.3c0,0-8.5,14.2-17.9,17.6c-5,1.8-8.9,2.3-13.1,0c-6.1-3.3-5.2-15.8-0.1-21.3
	c4.6-4.9,26.6-25.1,40.4-53.7c9.7-20.2,17.3-43,14.7-51.4c-2.7-8.3-18.7-19.4-29.3-16.6c-10.6,2.7-31.4,25.6-43,50.7
	c-11.7,25-13.5,49.4-15,54.8c-1.1,4.1-3.5,9.4-9.7,11.5c-9.3,3.3-18.1,1.9-22.1,1.2c0,0-10.1,4-7.1,15.4c3,11.3,18.4,9.1,18.4,9.1
	s-6.4,22-63.3,46.6c-69.5,30.3-95.3,20.7-98.7,13.4c-3.3-7.4,0.7-15,24.8-36c18.7-16.2,32.7-24.4,38-24c5.3,0.3,32.3,3.4,47.2,1.8
	c12.8-1.4,25.6-5.9,26.2-20.2c0.4-12.1-9-17.5-30.4-15.5c-22.2,2-41,8.7-48.4,10.6c-9.5,2.5-19.9-1.9-26.2-10.2
	c-2.6-3.4,1.4-4.1,2.9-4.5c2.5-0.8,48.8-19.6,63-28.5c14.6-9.1,50.7-31.6,50.7-47.9c0-16.4-17.6-27.1-26.9-28.1
	c-9.3-1-23.2-0.8-37,4.2c-13.6,5-35.9,12.1-69,39.1c-34.1,27.7-29.3,52.6-29.3,52.6l-7.6,1.2c-1.5-7.4-8.5-13-16.8-13
	c-9.5,0-17.2,7.1-17.2,15.8c0,6.8,4.6,12.5,11.2,14.9c1,0.4,2,0.8,3,1.2c9.3,2.9,31.5-0.1,35.6-1.2c0,0,7.1,12,27.8,19.2
	c0,0-53.5,26.7-57.7,62.5c-4,34,22.4,52.9,74.9,49.6c44.5-2.7,119.7-48,140.2-90.8c0,0,6.8,26.7,39.5,25.5c26.9-1,36.4-26,36.4-26
	s1.5,27.7,33.8,25.6c21.3-1.4,30.4-13.9,40.6-26.3c0,0,6.7,27,34.8,26.3c24-0.5,41.6-26.3,41.6-26.3s9.8,24.5,33.4,26.9
	c13.6,1.4,41.6-4.8,41.7-28.5C536.6,299.3,531.3,250,535.4,242.2z M376.1,196.5c3.5,7.5-14,44.5-19.4,43
	C351.4,238,373.6,191.3,376.1,196.5z M300.8,195.7c7.8,1.5-21,53.3-23.5,41.9C275,225.8,300.8,195.7,300.8,195.7z M76.1,253
	c-1,0,0.1-3.3,0.4-4.2c2.9-7.6,17.9-22.8,42.8-36.1c0,0,43.6-25.1,47.9-14.5c2.6,6.5-28.6,25.6-38,30.4
	C120.8,232.8,88,253.2,76.1,253z M496.1,306.5c-3.7,5.6-23.5,3.4-18.5-10.2c1-2.9,16.1-25.8,17.6-25.5
	C496.6,271.1,506.9,290.2,496.1,306.5z"/>
</svg>
